<svg xmlns="http://www.w3.org/2000/svg" viewBox="0 0 24 24"
     fill="none" stroke="#C5A028" stroke-width="2"
     stroke-linecap="round" stroke-linejoin="round">
  <!-- Owl body -->
  <path d="M12 21c-4 0-7-3-7-7V9c0-2.8 2.2-5 5-5h4c2.8 0 5 2.2 5 5v5c0 4-3 7-7 7z"/>
  <!-- Left eye -->
  <circle cx="9.5" cy="10" r="1.5"/>
  <!-- Right eye -->
  <circle cx="14.5" cy="10" r="1.5"/>
  <!-- Beak -->
  <path d="M11 13h2l-1 1.5L11 13z"/>
  <!-- Wing lines -->
  <path d="M5 11c-1.5 0-3 1-3 2.5"/>
  <path d="M19 11c1.5 0 3 1 3 2.5"/>
  <!-- Ear tufts -->
  <path d="M9 4L8 2"/>
  <path d="M15 4L16 2"/>
</svg>
